<?xml version="1.0" standalone="no"?>
<!DOCTYPE svg PUBLIC "-//W3C//DTD SVG 20010904//EN"
 "http://www.w3.org/TR/2001/REC-SVG-20010904/DTD/svg10.dtd">
<svg version="1.0" xmlns="http://www.w3.org/2000/svg"
 width="226.000000pt" height="173.000000pt" viewBox="0 0 226.000000 173.000000"
 preserveAspectRatio="xMidYMid meet">

<g transform="translate(0.000000,173.000000) scale(0.100000,-0.100000)"
fill="#000000" stroke="none">
<path d="M172 1695 c-18 -8 -46 -24 -62 -35 -39 -28 -80 -117 -80 -175 0 -56
36 -132 81 -169 69 -59 21 -56 1020 -56 914 0 919 0 964 21 51 24 98 73 120
126 42 100 -8 228 -108 278 l-51 25 -925 0 c-784 -1 -931 -3 -959 -15z"/>
<path d="M165 1076 c-111 -51 -164 -175 -120 -279 22 -54 74 -107 123 -128 42
-18 87 -19 962 -19 875 0 920 1 962 19 75 32 138 122 138 199 0 92 -73 195
-156 220 -31 9 -265 12 -950 12 l-909 0 -50 -24z"/>
<path d="M173 469 c-58 -22 -112 -79 -132 -138 -32 -97 8 -204 99 -259 l55
-32 945 2 945 3 45 32 c56 38 100 120 100 185 0 58 -39 139 -84 173 -74 56
-37 54 -1016 54 -883 0 -906 -1 -957 -20z"/>
</g>
</svg>
